<?xml version="1.0" encoding="UTF-8"?>
<svg width="7mm" height="7mm" version="1.1" viewBox="0 0 7 7" xmlns="http://www.w3.org/2000/svg"><g transform="translate(0,-290)"><path d="m0.78167 290h5.4367q0.32667 0 0.54833 0.23333 0.23333 0.22167 0.23333 0.54833v5.4367q0 0.32667-0.23333 0.56-0.22167 0.22167-0.54833 0.22167h-5.4367q-0.32667 0-0.56-0.22167-0.22167-0.23333-0.22167-0.56v-5.4367q0-0.32666 0.22167-0.54833 0.23333-0.23333 0.56-0.23333zm0.96833 4.6667q-0.25667 0-0.42 0.16334-0.16333 0.16333-0.16333 0.42 0 0.25666 0.16333 0.42 0.16333 0.16333 0.42 0.16333 0.25667 0 0.42-0.16333 0.16333-0.16334 0.16333-0.42 0-0.25667-0.175-0.42-0.16333-0.16334-0.40833-0.16334zm-0.58333-1.9483v0.78167q0.98 0.0233 1.645 0.68833 0.665 0.665 0.68833 1.645h0.78167q-0.035-1.33-0.91-2.205-0.875-0.875-2.205-0.91zm0-1.5517v0.78167q1.6567 0.035 2.7533 1.1317 1.0967 1.0967 1.1317 2.7533h0.78167q-0.058333-1.9833-1.3767-3.29-1.3067-1.3183-3.29-1.3767z"/></g></svg>
